<svg height="512" viewBox="0 0 256 256" width="512" xmlns="http://www.w3.org/2000/svg"><path d="m189.6 95.048a2.5 2.5 0 0 1 -2.5-2.5v-38.292h-29.767a2.5 2.5 0 0 1 0-5h32.267a2.5 2.5 0 0 1 2.5 2.5v40.792a2.5 2.5 0 0 1 -2.5 2.5z" fill="#65c1d6"/><path d="m66.4 95.048a2.5 2.5 0 0 1 -2.5-2.5v-40.792a2.5 2.5 0 0 1 2.5-2.5h32.267a2.5 2.5 0 0 1 0 5h-29.767v38.292a2.5 2.5 0 0 1 -2.5 2.5z" fill="#65c1d6"/><path d="m98.667 206.744h-32.267a2.5 2.5 0 0 1 -2.5-2.5v-40.792a2.5 2.5 0 1 1 5 0v38.292h29.767a2.5 2.5 0 0 1 0 5z" fill="#65c1d6"/><path d="m189.6 206.744h-32.267a2.5 2.5 0 0 1 0-5h29.767v-38.292a2.5 2.5 0 0 1 2.5-2.5 2.5 2.5 0 0 1 2.5 2.5v40.792a2.5 2.5 0 0 1 -2.5 2.5z" fill="#65c1d6"/><g fill="#846f75"><path d="m224 90.048h-192a2.5 2.5 0 0 0 -2.5 2.5v70.9a2.5 2.5 0 0 0 2.5 2.5h192a2.5 2.5 0 0 0 2.5-2.5v-70.9a2.5 2.5 0 0 0 -2.5-2.5zm-2.5 70.9h-187v-65.9h187z"/><path d="m155.773 178.942h-55.546a4.064 4.064 0 0 0 -4.06 4.06v42.483a4.064 4.064 0 0 0 4.06 4.06h55.546a4.064 4.064 0 0 0 4.06-4.06v-42.485a4.064 4.064 0 0 0 -4.06-4.058zm-.94 45.6h-53.666v-40.6h53.666z"/><path d="m124.225 213.319a2.5 2.5 0 0 0 3.268-1.348l5.631-13.534a2.5 2.5 0 0 0 -4.617-1.921l-5.631 13.534a2.5 2.5 0 0 0 1.349 3.269z"/><path d="m137.449 212.733a2.5 2.5 0 0 0 3.535 0l6.722-6.722a2.5 2.5 0 0 0 0-3.535l-6.722-6.722a2.5 2.5 0 1 0 -3.535 3.536l4.954 4.954-4.954 4.954a2.5 2.5 0 0 0 0 3.535z"/><path d="m115.016 212.733a2.5 2.5 0 1 0 3.535-3.535l-4.954-4.954 4.954-4.954a2.5 2.5 0 0 0 -3.535-3.536l-6.722 6.722a2.5 2.5 0 0 0 0 3.535z"/><path d="m109.85 80.2h36.3a2.5 2.5 0 0 0 2.5-2.5v-49.9a2.5 2.5 0 0 0 -2.5-2.5h-36.3a2.5 2.5 0 0 0 -2.5 2.5v49.9a2.5 2.5 0 0 0 2.5 2.5zm33.8-21h-31.3v-12.9h31.3zm-31.3 16v-11h31.3v11zm31.3-44.9v11h-31.3v-11z"/></g><path d="m110.163 127.816a27.317 27.317 0 0 0 -6.14-2.307 15.393 15.393 0 0 1 -5.253-2.253 3.242 3.242 0 0 1 -1.341-2.722 3.49 3.49 0 0 1 1.519-2.976 7.532 7.532 0 0 1 4.605-1.256 6.752 6.752 0 0 1 4.693 1.519 4.963 4.963 0 0 1 1.65 3.933 1.106 1.106 0 0 0 1.104 1.106h2.457a1.106 1.106 0 0 0 1.106-1.106 9.255 9.255 0 0 0 -1.418-5.008 9.55 9.55 0 0 0 -3.967-3.494 12.7 12.7 0 0 0 -5.627-1.222 12.312 12.312 0 0 0 -7.633 2.3 7.762 7.762 0 0 0 .231 12.665 22.389 22.389 0 0 0 6.885 2.911 16.974 16.974 0 0 1 5.754 2.441 3.588 3.588 0 0 1 1.285 2.943 3.523 3.523 0 0 1 -1.586 3.048 7.967 7.967 0 0 1 -4.757 1.274 8.617 8.617 0 0 1 -5.385-1.532 4.666 4.666 0 0 1 -1.85-3.939 1.105 1.105 0 0 0 -1.106-1.106h-2.435a1.106 1.106 0 0 0 -1.106 1.106 8.988 8.988 0 0 0 1.506 5.113 9.663 9.663 0 0 0 4.346 3.446 15.242 15.242 0 0 0 6.032 1.179 12.718 12.718 0 0 0 7.848-2.285 7.6 7.6 0 0 0 3.163-6.35 7.932 7.932 0 0 0 -1.184-4.34 9.519 9.519 0 0 0 -3.396-3.088z" fill="#65c1d6"/><path d="m136.327 141.436a11.731 11.731 0 0 0 3.341-4.259 17.727 17.727 0 0 0 1.563-7.657v-3.11a17.735 17.735 0 0 0 -1.5-7.457 11.755 11.755 0 0 0 -4.364-5.127 11.942 11.942 0 0 0 -6.516-1.8 11.483 11.483 0 0 0 -10.823 6.954 17.731 17.731 0 0 0 -1.5 7.445v3.235a17.3 17.3 0 0 0 1.533 7.351 11.586 11.586 0 0 0 10.826 6.865 13.382 13.382 0 0 0 3.022-.347 13.038 13.038 0 0 0 4.418-2.093zm-15.145-14.928c0-3.264.721-5.814 2.142-7.577a7.376 7.376 0 0 1 11.143-.013c1.4 1.757 2.115 4.271 2.115 7.472v3.07c0 3.255-.707 5.8-2.1 7.555a7.379 7.379 0 0 1 -11.171-.048 11.777 11.777 0 0 1 -2.13-7.447z" fill="#65c1d6"/><path d="m163.046 139.211h-13.138v-25.679a1.106 1.106 0 0 0 -1.106-1.106h-2.456a1.105 1.105 0 0 0 -1.106 1.106v28.845a1.105 1.105 0 0 0 1.106 1.106h16.7a1.106 1.106 0 0 0 1.106-1.106v-2.06a1.106 1.106 0 0 0 -1.106-1.106z" fill="#65c1d6"/><path d="m128.883 134.294a1.109 1.109 0 0 0 -.282 1.811l10.264 9.606a1.1 1.1 0 0 0 1.461-.012l1.684-1.506a1.106 1.106 0 0 0 -.01-1.658l-9.622-9.117a1.109 1.109 0 0 0 -1.239-.2z" fill="#65c1d6"/></svg>